# xmcd CD database file generated by OrangeCD 5.2
#
# Track frame offsets:
#	150
#	13030
#	23368
#	38151
#	51289
#	63150
#	76036
#	91193
#	102539
#	114389
#
# Disc length: 1731 seconds
#
# Revision: 1
# Processed by: cddbd v1.5.1PL2 Copyright (c) Steve Scherf et al.
# Submitted via: OrangeCD 5.2
#
DISCID=6a06c10a
DTITLE=Various Artist - Country Favorites - Disk 2
DYEAR=2003
DGENRE=Country
TTITLE0=(Freddy Fender) - Wasted Days and Wasted Nights
TTITLE1=(Faron Young) - Hello Walls
TTITLE2=(Jeanne Pruett) - Satin Sheets
TTITLE3=(Kenny Rogers) - Ruby Don't Take Your Love to Town
TTITLE4=(Willie Nelson) - Night Life
TTITLE5=(TG Sheppard) - Devil in the Bottle
TTITLE6=(Moe Bandy) - Hank Williams You Wrote My Life
TTITLE7=(Kitty Wells) - It Wasn't Go Who Made Honky Tonk Angels
TTITLE8=(Patsy Cline) - Walkin' After Midnight
TTITLE9=(Jack Greene) - There Goes My Everything
EXTD=YEAR: 2003 ID3G: 2
EXTT0=
EXTT1=
EXTT2=
EXTT3=
EXTT4=
EXTT5=
EXTT6=
EXTT7=
EXTT8=
EXTT9=
PLAYORDER=
